<svg width="288" height="272" viewBox="0 0 288 272" fill="none" xmlns="http://www.w3.org/2000/svg">
<rect width="288" height="272" fill="#FDFDFD"/>
<path fill-rule="evenodd" clip-rule="evenodd" d="M144 51.9211C134.969 56.2792 126.357 64.2618 123.865 75.835C120.982 89.2204 110.001 99.7765 95.8068 102.806C56.9362 111.104 57.6158 163.267 96.6909 170.671C110.96 173.375 122.213 183.676 125.443 196.991C128.15 208.152 135.239 215.837 144 220.077C124.427 229.522 96.4792 221.943 90.4268 196.993C87.1968 183.677 75.9437 173.376 61.6746 170.673C22.5995 163.269 21.9199 111.105 60.7905 102.808C74.9849 99.7781 85.9662 89.222 88.8484 75.8367C94.3251 50.4016 124.14 42.3092 144 51.9211Z" fill="#0F0E12"/>
<path fill-rule="evenodd" clip-rule="evenodd" d="M144 51.9211C153.031 56.2792 161.643 64.2618 164.135 75.835C167.018 89.2203 177.999 99.7764 192.193 102.806C231.064 111.104 230.384 163.267 191.309 170.671C177.04 173.374 165.787 183.676 162.557 196.991C159.85 208.152 152.761 215.837 144 220.077C163.573 229.522 191.521 221.943 197.573 196.993C200.803 183.677 212.056 173.376 226.325 170.672C265.4 163.269 266.08 111.105 227.21 102.808C213.015 99.778 202.034 89.2219 199.152 75.8366C193.675 50.4016 163.86 42.3092 144 51.9211Z" fill="#0F0E12"/>
</svg>
