<?xml version="1.0" standalone="no"?>
<!DOCTYPE svg PUBLIC "-//W3C//DTD SVG 20010904//EN"
 "http://www.w3.org/TR/2001/REC-SVG-20010904/DTD/svg10.dtd">
<svg version="1.0" xmlns="http://www.w3.org/2000/svg"
 width="1024.000000pt" height="1024.000000pt" viewBox="0 0 1024.000000 1024.000000"
 preserveAspectRatio="xMidYMid meet">
<metadata>
Created by potrace 1.14, written by Peter Selinger 2001-2017
</metadata>
<g transform="translate(0.000000,1024.000000) scale(0.100000,-0.100000)"
fill="#000000" stroke="none">
<path d="M2425 10229 c-807 -32 -1293 -140 -1630 -359 -295 -193 -489 -455
-610 -823 -102 -310 -152 -684 -176 -1307 -11 -308 -8 -5180 4 -5270 3 -25 9
-110 12 -190 20 -484 94 -919 204 -1193 39 -98 80 -180 95 -189 6 -4 7 -8 3
-8 -17 0 94 -165 160 -239 18 -20 42 -49 54 -64 17 -22 24 -26 30 -15 7 10 9
9 9 -4 0 -10 7 -18 16 -18 8 0 12 -4 9 -10 -3 -5 9 -23 27 -39 23 -20 35 -26
40 -18 5 8 8 7 8 -4 0 -28 28 -45 51 -31 20 13 26 3 9 -14 -7 -7 3 -20 32 -40
56 -40 158 -96 158 -88 0 4 9 -1 20 -11 11 -10 28 -15 40 -12 14 3 25 -1 32
-13 7 -10 18 -16 26 -12 10 3 13 1 8 -6 -11 -18 2 -14 35 9 31 22 39 18 14 -8
-19 -18 -9 -39 11 -22 11 9 14 8 14 -7 0 -16 2 -17 10 -4 8 13 10 12 10 -2 0
-10 5 -18 11 -18 6 0 8 8 4 19 -5 15 -1 19 13 18 16 -1 18 -4 9 -19 -13 -20
-11 -23 21 -32 13 -5 22 -3 22 3 0 6 5 11 10 11 6 0 9 -5 8 -12 -2 -7 2 -13 7
-13 6 -1 24 -7 40 -14 17 -7 42 -11 57 -9 16 3 29 -1 32 -9 7 -18 23 -17 23 2
0 8 -3 15 -7 15 -3 0 -6 8 -6 19 0 11 5 17 13 14 7 -3 13 2 13 11 0 9 -8 16
-20 16 -18 0 -19 2 -8 23 11 19 13 20 16 4 2 -9 8 -15 13 -12 5 4 9 -7 9 -24
0 -16 -4 -32 -9 -35 -15 -10 0 -48 16 -42 9 4 11 1 7 -5 -4 -7 -1 -10 7 -7 8
3 15 15 17 29 2 19 1 21 -8 9 -8 -12 -10 -9 -8 14 2 16 10 31 18 33 13 4 13 3
1 -5 -12 -9 -12 -13 2 -26 17 -18 32 -22 22 -6 -3 5 -1 18 4 27 10 17 10 17
11 1 0 -10 5 -18 12 -18 6 0 -1 -10 -15 -23 -48 -41 -33 -51 71 -50 12 0 22
-5 22 -11 0 -6 7 -2 15 8 8 11 15 14 15 7 0 -7 4 -10 9 -7 5 3 12 -2 16 -12 6
-15 7 -16 15 -1 11 18 100 26 100 8 0 -5 -7 -9 -16 -7 -10 2 -19 -3 -22 -11
-4 -11 5 -13 42 -9 25 3 43 2 40 -3 -3 -5 7 -9 21 -9 14 0 24 3 22 8 -3 4 2
14 11 21 14 13 15 13 10 -6 -5 -18 0 -22 29 -28 25 -4 40 -2 53 10 17 15 19
15 29 -2 9 -16 10 -16 11 -1 0 9 -6 21 -13 25 -14 9 -19 43 -6 43 5 0 9 -8 9
-17 1 -30 27 -56 50 -50 13 3 20 0 20 -9 0 -17 37 -19 43 -1 3 8 10 6 21 -8
15 -20 15 -20 16 2 0 28 11 34 33 18 11 -8 14 -16 8 -19 -5 -4 -14 2 -20 11
-9 16 -10 16 -11 -4 0 -22 4 -23 78 -24 42 -1 96 -2 120 -4 23 -1 42 2 42 6 0
5 -8 9 -17 9 -18 0 -12 10 9 14 7 1 19 5 26 9 7 5 12 3 12 -7 0 -8 -6 -16 -12
-19 -9 -3 -7 -7 6 -12 11 -5 26 -3 37 3 12 8 20 8 24 1 4 -6 12 -3 21 8 8 10
13 13 12 7 -2 -7 1 -12 6 -12 5 0 13 -6 17 -14 7 -11 11 -10 19 2 7 11 10 11
10 2 0 -10 5 -10 20 -2 14 7 20 7 20 0 0 -13 147 -13 155 0 4 6 -1 7 -12 4
-15 -5 -15 -4 -3 4 16 12 33 6 25 -9 -4 -5 1 -9 9 -9 9 0 16 7 16 15 0 8 4 15
10 15 5 0 7 -7 4 -15 -5 -12 2 -15 31 -15 20 0 34 3 32 8 -3 4 1 13 9 19 8 8
15 9 19 3 4 -6 11 -7 17 -4 7 5 8 2 4 -5 -5 -7 -14 -10 -22 -7 -8 3 -14 1 -14
-4 0 -6 14 -10 31 -10 17 0 28 4 24 10 -3 6 -1 10 4 10 6 0 11 -4 11 -9 0 -5
34 -9 76 -9 42 0 78 -3 81 -5 2 -3 18 -1 34 3 16 5 29 5 29 0 0 -12 4068 -13
4465 0 701 22 1088 70 1410 176 239 78 447 200 611 357 337 322 496 769 554
1557 28 375 31 822 27 3255 -4 2543 -4 2569 -42 2965 -73 750 -269 1189 -670
1494 -346 263 -834 379 -1750 416 -297 12 -5051 11 -5350 -1z m2445 -2860 c47
-11 109 -31 139 -45 l55 -25 -63 -41 c-197 -128 -316 -307 -380 -568 -90 -368
-307 -595 -666 -696 -205 -57 -329 -123 -440 -230 -108 -105 -175 -211 -224
-359 -121 -365 0 -778 294 -1002 102 -78 215 -129 370 -168 218 -55 344 -124
476 -261 115 -120 178 -236 229 -425 34 -122 80 -231 131 -306 54 -79 159
-183 238 -234 l74 -49 -58 -26 c-32 -14 -97 -35 -144 -46 -110 -28 -311 -30
-416 -4 -200 48 -365 146 -480 286 -94 115 -145 220 -191 395 -46 174 -109
291 -223 409 -116 120 -272 214 -418 251 -148 37 -241 69 -314 106 -279 145
-453 444 -453 779 0 252 80 454 248 628 111 117 246 191 436 242 217 58 388
165 510 319 99 124 127 188 199 456 125 460 587 725 1071 614z m860 6 c214
-43 420 -178 540 -355 59 -87 93 -166 135 -310 58 -202 112 -303 228 -426 120
-129 272 -214 472 -264 145 -36 228 -69 319 -128 180 -114 310 -296 367 -512
31 -116 33 -339 5 -450 -42 -167 -114 -297 -226 -411 -115 -118 -253 -192
-448 -244 -357 -94 -582 -327 -678 -701 -19 -76 -50 -171 -69 -212 -112 -242
-336 -419 -609 -479 -94 -21 -297 -21 -393 0 -73 17 -213 67 -213 77 0 3 26
20 57 39 79 48 192 158 248 242 62 93 100 185 140 340 38 143 74 229 136 320
86 129 234 253 375 315 31 14 106 38 168 55 233 62 408 175 522 335 319 447
181 1087 -286 1328 -84 43 -135 61 -318 111 -152 41 -279 113 -389 222 -126
124 -188 236 -248 443 -61 213 -133 339 -258 457 -36 33 -90 76 -121 94 -30
19 -56 36 -56 39 0 8 103 48 171 66 134 34 287 38 429 9z m-5443 -6331 c-3 -3
-12 -4 -19 -1 -8 3 -5 6 6 6 11 1 17 -2 13 -5z m348 -54 c3 -5 -1 -10 -10 -10
-9 0 -13 5 -10 10 3 6 8 10 10 10 2 0 7 -4 10 -10z m-95 -20 c0 -5 -4 -10 -10
-10 -5 0 -10 5 -10 10 0 6 5 10 10 10 6 0 10 -4 10 -10z m-169 -33 c-10 -9
-11 -8 -5 6 3 10 9 15 12 12 3 -3 0 -11 -7 -18z m129 -11 c0 -3 -4 -8 -10 -11
-5 -3 -10 -1 -10 4 0 6 5 11 10 11 6 0 10 -2 10 -4z m427 -42 c-3 -3 -12 -4
-19 -1 -8 3 -5 6 6 6 11 1 17 -2 13 -5z m368 -4 c3 -5 1 -10 -4 -10 -6 0 -11
5 -11 10 0 6 2 10 4 10 3 0 8 -4 11 -10z m-520 -30 c3 -5 1 -10 -4 -10 -6 0
-11 5 -11 10 0 6 2 10 4 10 3 0 8 -4 11 -10z m-81 -25 c-7 -16 -24 -21 -24 -6
0 8 7 13 27 20 1 1 0 -6 -3 -14z m86 -5 c0 -5 -5 -10 -11 -10 -5 0 -7 5 -4 10
3 6 8 10 11 10 2 0 4 -4 4 -10z m367 -25 c0 -8 -4 -12 -9 -9 -5 3 -6 10 -3 15
9 13 12 11 12 -6z m-508 -16 c-14 -8 -29 -3 -29 11 0 4 9 6 21 3 15 -4 17 -8
8 -14z m251 11 c0 -5 -5 -10 -11 -10 -5 0 -7 5 -4 10 3 6 8 10 11 10 2 0 4 -4
4 -10z m-470 -10 c0 -5 -2 -10 -4 -10 -3 0 -8 5 -11 10 -3 6 -1 10 4 10 6 0
11 -4 11 -10z m254 -15 c3 -8 1 -15 -4 -15 -6 0 -10 7 -10 15 0 8 2 15 4 15 2
0 6 -7 10 -15z m131 -25 c-3 -5 -12 -10 -18 -10 -7 0 -6 4 3 10 19 12 23 12
15 0z m498 -15 c-3 -9 -8 -14 -10 -11 -3 3 -2 9 2 15 9 16 15 13 8 -4z m-643
-4 c0 -6 -4 -12 -8 -15 -5 -3 -9 1 -9 9 0 8 4 15 9 15 4 0 8 -4 8 -9z m1345
-11 c-3 -5 -12 -10 -18 -10 -7 0 -6 4 3 10 19 12 23 12 15 0z m-1480 -10 c3
-5 1 -10 -4 -10 -6 0 -11 5 -11 10 0 6 2 10 4 10 3 0 8 -4 11 -10z m835 -12
c0 -13 -32 -6 -37 9 -3 7 3 9 16 6 12 -3 21 -10 21 -15z m-865 2 c3 -5 1 -10
-4 -10 -6 0 -11 5 -11 10 0 6 2 10 4 10 3 0 8 -4 11 -10z m90 0 c3 -6 -1 -7
-9 -4 -18 7 -21 14 -7 14 6 0 13 -4 16 -10z m285 -11 c0 -8 -47 -5 -55 3 -3 3
9 5 25 5 17 0 30 -4 30 -8z m23 -4 c-3 -9 -8 -14 -10 -11 -3 3 -2 9 2 15 9 16
15 13 8 -4z m204 0 c0 -8 -4 -12 -9 -9 -5 3 -6 10 -3 15 9 13 12 11 12 -6z
m596 0 c-3 -9 -8 -14 -10 -11 -3 3 -2 9 2 15 9 16 15 13 8 -4z m-1029 -10 c-4
-8 -11 -15 -16 -15 -6 0 -5 6 2 15 7 8 14 15 16 15 2 0 1 -7 -2 -15z m-87 -22
c0 -9 -4 -10 -14 -2 -7 6 -13 12 -13 14 0 1 6 2 13 2 8 0 14 -6 14 -14z m143
13 c0 -2 -8 -10 -17 -17 -16 -13 -17 -12 -4 4 13 16 21 21 21 13z m533 -11
c-3 -9 -8 -14 -10 -11 -3 3 -2 9 2 15 9 16 15 13 8 -4z m-445 -20 c-3 -3 -9 2
-12 12 -6 14 -5 15 5 6 7 -7 10 -15 7 -18z m377 15 c-3 -5 -11 -10 -16 -10 -6
0 -7 5 -4 10 3 6 11 10 16 10 6 0 7 -4 4 -10z m-287 -12 c-2 -7 5 -12 15 -10
9 2 17 -2 17 -8 0 -15 -36 -12 -49 4 -11 13 -8 17 17 25 1 1 1 -5 0 -11z m678
-24 c-4 -9 -9 -15 -11 -12 -3 3 -3 13 1 22 4 9 9 15 11 12 3 -3 3 -13 -1 -22z
m-856 1 c0 -12 -19 -12 -23 0 -4 9 -1 12 9 8 7 -3 14 -7 14 -8z m113 -10 c-10
-13 -22 -25 -27 -25 -9 0 11 29 29 42 17 13 17 9 -2 -17z m237 19 c0 -8 -19
-13 -24 -6 -3 5 1 9 9 9 8 0 15 -2 15 -3z m340 -4 c0 -5 -5 -10 -11 -10 -5 0
-7 5 -4 10 3 6 8 10 11 10 2 0 4 -4 4 -10z m450 0 c0 -5 -2 -10 -4 -10 -3 0
-8 5 -11 10 -3 6 -1 10 4 10 6 0 11 -4 11 -10z m-902 -13 c-7 -7 -22 -16 -33
-20 -16 -6 -15 -3 5 13 28 22 49 27 28 7z m369 7 c-3 -3 -12 -4 -19 -1 -8 3
-5 6 6 6 11 1 17 -2 13 -5z m-707 -24 c8 -5 11 -10 5 -10 -5 0 -17 5 -25 10
-8 5 -10 10 -5 10 6 0 17 -5 25 -10z m46 -5 c9 -8 14 -15 12 -16 -31 -7 -36
-5 -35 12 2 23 4 23 23 4z m49 -35 c-3 -33 -15 -54 -15 -27 0 10 -6 17 -12 18
-10 0 -10 2 0 6 6 2 12 11 12 19 0 8 4 14 9 14 5 0 7 -14 6 -30z m62 24 c-3
-3 -12 -4 -19 -1 -8 3 -5 6 6 6 11 1 17 -2 13 -5z m953 -4 c-18 -12 -30 -13
-30 -2 0 4 10 9 22 9 18 2 20 0 8 -7z m275 0 c-3 -5 -10 -10 -16 -10 -5 0 -9
5 -9 10 0 6 7 10 16 10 8 0 12 -4 9 -10z m-1025 -58 c0 -9 -3 -12 -7 -8 -5 4
-8 13 -8 19 0 20 -35 20 -58 0 -12 -10 -16 -11 -10 -3 6 8 11 19 11 25 0 5 9
12 19 16 20 7 53 -24 53 -49z m-196 36 c-4 -6 0 -14 7 -19 8 -5 9 -9 3 -9 -6
0 -18 8 -27 18 -15 17 -15 18 4 19 11 1 17 -3 13 -9z m46 2 c0 -5 -4 -10 -10
-10 -5 0 -10 5 -10 10 0 6 5 10 10 10 6 0 10 -4 10 -10z m653 -3 c-3 -5 -11
-6 -19 -3 -8 3 -14 0 -14 -6 0 -6 -3 -9 -6 -5 -10 10 3 23 25 23 11 0 17 -4
14 -9z m-598 -7 c3 -5 1 -10 -4 -10 -6 0 -11 5 -11 10 0 6 2 10 4 10 3 0 8 -4
11 -10z m130 -18 c0 -9 6 -16 13 -14 6 1 12 -2 12 -7 0 -5 -10 -8 -23 -7 -21
1 -25 16 -18 55 2 11 16 -12 16 -27z m45 13 c0 -8 -7 -15 -16 -15 -14 0 -14 3
-4 15 7 8 14 15 16 15 2 0 4 -7 4 -15z m95 -4 c-3 -6 -11 -11 -17 -11 -6 0 -6
6 2 15 14 17 26 13 15 -4z m228 1 c14 -15 14 -19 3 -19 -8 0 -17 9 -19 19 -3
10 -4 18 -3 18 2 0 10 -8 19 -18z m-162 -15 c-10 -9 -11 -8 -5 6 3 10 9 15 12
12 3 -3 0 -11 -7 -18z m356 1 c-3 -8 -6 -5 -6 6 -1 11 2 17 5 13 3 -3 4 -12 1
-19z m136 15 c-7 -2 -19 -2 -25 0 -7 3 -2 5 12 5 14 0 19 -2 13 -5z m917 3 c0
-3 -4 -8 -10 -11 -5 -3 -10 -1 -10 4 0 6 5 11 10 11 6 0 10 -2 10 -4z m-1760
-31 c0 -8 -4 -15 -10 -15 -5 0 -7 7 -4 15 4 8 8 15 10 15 2 0 4 -7 4 -15z
m800 0 c-7 -9 -15 -13 -17 -11 -7 7 7 26 19 26 6 0 6 -6 -2 -15z m-436 -19
c-3 -9 -10 -13 -15 -10 -5 3 -3 11 4 19 15 16 19 13 11 -9z m63 -8 c-3 -7 -5
-2 -5 12 0 14 2 19 5 13 2 -7 2 -19 0 -25z m41 1 c-3 -8 -7 -3 -11 10 -4 17
-3 21 5 13 5 -5 8 -16 6 -23z m120 3 c6 -18 -15 -14 -22 4 -4 10 -1 14 6 12 6
-2 14 -10 16 -16z m99 -14 c-3 -7 -5 -2 -5 12 0 14 2 19 5 13 2 -7 2 -19 0
-25z m181 7 c0 -16 -6 -25 -17 -25 -13 0 -13 2 -2 9 10 6 10 10 1 16 -9 6 -9
10 1 16 8 5 15 9 15 9 1 0 2 -11 2 -25z m289 3 c-3 -8 -6 -5 -6 6 -1 11 2 17
5 13 3 -3 4 -12 1 -19z m93 8 c0 -3 -4 -8 -10 -11 -5 -3 -10 -1 -10 4 0 6 5
11 10 11 6 0 10 -2 10 -4z m-1198 -28 c-7 -7 -12 -8 -12 -2 0 14 12 26 19 19
2 -3 -1 -11 -7 -17z m68 2 c-24 -15 -36 -11 -14 4 10 8 21 12 24 10 2 -3 -2
-9 -10 -14z m89 -27 c-13 -12 -27 -23 -32 -23 -6 0 -1 10 11 23 24 25 29 43
10 31 -7 -4 -8 -3 -4 5 6 9 11 9 22 0 13 -10 12 -15 -7 -36z m-282 30 c-4 -3
1 -12 11 -20 15 -11 13 -12 -11 -1 -20 8 -24 14 -15 20 16 9 24 10 15 1z m93
-15 c0 -6 -6 -5 -15 2 -8 7 -15 14 -15 16 0 2 7 1 15 -2 8 -4 15 -11 15 -16z
m329 8 c8 -10 9 -16 1 -21 -5 -3 -10 0 -10 9 0 8 -6 17 -12 19 -8 4 -9 6 -2 6
6 1 17 -5 23 -13z m-35 -12 c3 -9 4 -20 0 -25 -3 -5 0 -9 5 -9 6 0 11 -8 11
-17 0 -15 -2 -14 -14 2 -8 11 -12 23 -10 27 3 5 1 8 -5 8 -5 0 -13 -4 -16 -10
-8 -13 -25 -13 -25 1 0 5 5 7 11 4 6 -4 13 2 16 14 6 25 18 27 27 5z m96 -21
c0 -7 -6 -13 -14 -13 -9 0 -12 8 -8 26 3 19 7 22 13 12 5 -7 9 -19 9 -25z
m204 -2 c-4 -3 -9 0 -11 7 -3 6 -12 12 -21 12 -15 0 -15 2 -2 10 11 7 19 5 27
-7 7 -9 10 -19 7 -22z m541 20 c-3 -6 -11 -11 -16 -11 -5 0 -4 6 3 14 14 16
24 13 13 -3z m-998 3 c-3 -3 -12 -4 -19 -1 -8 3 -5 6 6 6 11 1 17 -2 13 -5z
m348 -3 c3 -6 -4 -9 -15 -8 -11 1 -20 5 -20 9 0 11 28 10 35 -1z m215 5 c0 -3
-4 -8 -10 -11 -5 -3 -10 -1 -10 4 0 6 5 11 10 11 6 0 10 -2 10 -4z m294 -11
c-4 -8 -11 -15 -16 -15 -6 0 -5 6 2 15 7 8 14 15 16 15 2 0 1 -7 -2 -15z
m-1099 -24 c-6 -5 -25 10 -25 20 0 5 6 4 14 -3 8 -7 12 -15 11 -17z m155 25
c0 -3 -4 -8 -10 -11 -5 -3 -10 -1 -10 4 0 6 5 11 10 11 6 0 10 -2 10 -4z
m1297 -18 c-3 -8 -6 -5 -6 6 -1 11 2 17 5 13 3 -3 4 -12 1 -19z m-912 2 c-3
-5 -10 -10 -16 -10 -5 0 -9 5 -9 10 0 6 7 10 16 10 8 0 12 -4 9 -10z m135 0
c0 -5 -5 -10 -11 -10 -5 0 -7 5 -4 10 3 6 8 10 11 10 2 0 4 -4 4 -10z m180
-10 c-8 -6 -22 -10 -30 -10 -8 0 -4 6 10 13 27 15 44 12 20 -3z m85 10 c3 -5
-1 -10 -9 -10 -9 0 -16 5 -16 10 0 6 4 10 9 10 6 0 13 -4 16 -10z m423 3 c-10
-2 -26 -2 -35 0 -10 3 -2 5 17 5 19 0 27 -2 18 -5z m-1133 -29 c-10 -8 -20
-12 -23 -10 -7 8 23 34 32 28 5 -3 1 -11 -9 -18z m1018 19 c-7 -2 -19 -2 -25
0 -7 3 -2 5 12 5 14 0 19 -2 13 -5z m787 -3 c0 -5 -5 -10 -11 -10 -5 0 -7 5
-4 10 3 6 8 10 11 10 2 0 4 -4 4 -10z m86 -27 c-3 -4 -6 -1 -6 5 0 7 -7 9 -17
5 -15 -6 -16 -5 -3 9 13 14 16 14 23 1 5 -8 6 -17 3 -20z m-2036 11 c0 -8 -4
-12 -10 -9 -5 3 -10 10 -10 16 0 5 5 9 10 9 6 0 10 -7 10 -16z m711 -7 c-10
-9 -11 -8 -5 6 3 10 9 15 12 12 3 -3 0 -11 -7 -18z m1036 17 c-3 -3 -12 -4
-19 -1 -8 3 -5 6 6 6 11 1 17 -2 13 -5z m-1652 -33 c0 -17 -5 -27 -11 -24 -6
2 -11 15 -11 29 0 13 5 24 11 24 6 0 11 -13 11 -29z m105 3 c0 -8 -4 -14 -10
-14 -5 0 -10 9 -10 21 0 11 5 17 10 14 6 -3 10 -13 10 -21z m593 11 c-3 -9 -8
-14 -10 -11 -3 3 -2 9 2 15 9 16 15 13 8 -4z m-495 -13 c2 -7 -5 -12 -17 -12
-14 0 -19 5 -14 15 6 17 25 15 31 -3z m596 3 c-4 -8 -10 -15 -15 -15 -4 0 -6
7 -3 15 4 8 10 15 15 15 4 0 6 -7 3 -15z m326 -6 c0 -5 -4 -9 -8 -9 -5 0 -9 7
-9 15 0 8 4 12 9 9 4 -3 8 -9 8 -15z m-540 7 c0 -3 -4 -8 -10 -11 -5 -3 -10
-1 -10 4 0 6 5 11 10 11 6 0 10 -2 10 -4z m280 -12 c0 -2 -7 -4 -15 -4 -8 0
-15 4 -15 10 0 5 7 7 15 4 8 -4 15 -8 15 -10z m-920 -10 c0 -2 -9 -4 -20 -4
-11 0 -20 4 -20 9 0 5 9 7 20 4 11 -3 20 -7 20 -9z m91 -7 c-10 -9 -11 -8 -5
6 3 10 9 15 12 12 3 -3 0 -11 -7 -18z m989 19 c0 -3 -4 -8 -10 -11 -5 -3 -10
-1 -10 4 0 6 5 11 10 11 6 0 10 -2 10 -4z m30 -6 c0 -5 -5 -10 -11 -10 -5 0
-7 5 -4 10 3 6 8 10 11 10 2 0 4 -4 4 -10z m-980 -13 c0 -2 -9 -12 -20 -22
-24 -21 -27 -14 -4 9 15 15 24 20 24 13z m1829 -6 c9 -6 6 -8 -13 -8 -14 0
-23 3 -20 8 7 11 15 11 33 0z m-1799 -5 c0 -3 -4 -8 -10 -11 -5 -3 -10 -1 -10
4 0 6 5 11 10 11 6 0 10 -2 10 -4z m160 -11 c0 -8 -7 -15 -16 -15 -14 0 -14 3
-4 15 7 8 14 15 16 15 2 0 4 -7 4 -15z m227 -4 c-1 -12 -8 -19 -19 -18 -23 2
-23 6 0 23 22 17 21 17 19 -5z m543 8 c0 -5 5 -7 12 -3 7 4 8 3 4 -5 -6 -9
-11 -9 -22 0 -17 14 -18 19 -4 19 6 0 10 -5 10 -11z m1070 1 c0 -5 -5 -10 -11
-10 -5 0 -7 5 -4 10 3 6 8 10 11 10 2 0 4 -4 4 -10z m-2090 -10 c0 -5 -4 -10
-10 -10 -5 0 -10 5 -10 10 0 6 5 10 10 10 6 0 10 -4 10 -10z m705 -8 c-3 -3
-11 0 -18 7 -9 10 -8 11 6 5 10 -3 15 -9 12 -12z m1065 8 c0 -5 -4 -10 -10
-10 -5 0 -10 5 -10 10 0 6 5 10 10 10 6 0 10 -4 10 -10z m-1620 -4 c0 -3 -4
-8 -10 -11 -5 -3 -10 -1 -10 4 0 6 5 11 10 11 6 0 10 -2 10 -4z m218 -3 c-10
-2 -26 -2 -35 0 -10 3 -2 5 17 5 19 0 27 -2 18 -5z m467 -3 c-3 -5 -12 -10
-18 -10 -7 0 -6 4 3 10 19 12 23 12 15 0z m-755 -10 c0 -5 -4 -10 -9 -10 -6 0
-13 5 -16 10 -3 6 1 10 9 10 9 0 16 -4 16 -10z m137 -19 c-1 -11 -6 -17 -14
-14 -10 4 -11 9 -2 19 15 19 18 18 16 -5z m489 5 c13 9 24 12 24 8 0 -5 -9
-15 -21 -22 -16 -10 -24 -10 -35 -1 -7 6 -11 16 -7 23 5 7 9 5 11 -6 3 -16 5
-16 28 -2z m74 4 c0 -5 -7 -7 -15 -4 -8 4 -15 8 -15 10 0 2 7 4 15 4 8 0 15
-4 15 -10z m404 -15 c-29 -22 -42 -17 -15 6 13 11 26 17 29 14 3 -3 -3 -12
-14 -20z m586 15 c0 -5 -5 -10 -11 -10 -5 0 -7 5 -4 10 3 6 8 10 11 10 2 0 4
-4 4 -10z m-1466 -16 c3 -8 2 -12 -4 -9 -6 3 -10 10 -10 16 0 14 7 11 14 -7z
m94 -10 c-16 -17 -38 -12 -38 8 0 7 5 6 15 -2 12 -10 16 -9 21 4 4 9 9 14 12
11 3 -3 -1 -13 -10 -21z m74 4 c-7 -7 -12 -8 -12 -2 0 14 12 26 19 19 2 -3 -1
-11 -7 -17z m62 7 c-7 -17 -20 -20 -29 -6 -3 5 3 12 12 14 10 3 19 5 20 6 1 0
0 -6 -3 -14z m1203 0 c0 -8 -4 -12 -9 -9 -4 3 -8 9 -8 15 0 5 4 9 8 9 5 0 9
-7 9 -15z m-919 -20 c-1 -14 -6 -25 -11 -25 -5 0 -7 -7 -4 -15 4 -8 2 -17 -3
-20 -13 -8 -12 12 2 52 14 39 18 42 16 8z m40 0 c-3 -3 -9 2 -12 12 -6 14 -5
15 5 6 7 -7 10 -15 7 -18z m-688 5 c0 -5 -2 -10 -4 -10 -3 0 -8 5 -11 10 -3 6
-1 10 4 10 6 0 11 -4 11 -10z m180 -20 c0 -18 -5 -30 -13 -30 -8 0 -14 7 -14
15 0 8 4 15 9 15 4 0 7 3 7 8 -2 12 1 22 6 22 3 0 5 -13 5 -30z m227 24 c-3
-3 -12 -4 -19 -1 -8 3 -5 6 6 6 11 1 17 -2 13 -5z m563 2 c0 -3 -4 -8 -10 -11
-5 -3 -10 -1 -10 4 0 6 5 11 10 11 6 0 10 -2 10 -4z m128 -16 c-7 -11 -19 -20
-27 -20 -8 0 -4 8 10 20 30 25 32 25 17 0z m-277 -23 l-23 -22 17 28 c10 15
20 25 23 22 3 -3 -5 -16 -17 -28z m-726 3 c-3 -5 -13 -6 -21 -3 -12 4 -13 8
-3 14 15 9 32 2 24 -11z m285 8 c0 -4 -7 -8 -15 -8 -8 0 -15 4 -15 8 0 5 7 9
15 9 8 0 15 -4 15 -9z m50 4 c0 -5 -7 -9 -15 -9 -8 0 -15 4 -15 9 0 4 7 8 15
8 8 0 15 -4 15 -8z m97 -11 c0 -11 -5 -17 -9 -15 -11 7 -10 34 1 34 6 0 9 -9
8 -19z m59 -3 c-9 -5 -13 -14 -9 -21 4 -7 0 -6 -10 2 -16 13 -16 14 0 26 10 7
22 11 27 8 5 -3 1 -10 -8 -15z m989 12 c-3 -5 -12 -10 -18 -10 -7 0 -6 4 3 10
19 12 23 12 15 0z m-1438 -22 c-3 -8 -6 -5 -6 6 -1 11 2 17 5 13 3 -3 4 -12 1
-19z m344 13 c-9 -6 -10 -14 -4 -26 11 -19 5 -65 -8 -65 -11 0 -11 11 1 30 5
8 5 19 1 25 -19 25 -18 41 2 43 16 1 18 -1 8 -7z m519 5 c0 -11 -19 -15 -25
-6 -3 5 1 10 9 10 9 0 16 -2 16 -4z m440 -6 c0 -5 -8 -10 -17 -10 -15 0 -16 2
-3 10 19 12 20 12 20 0z m-680 -10 c0 -5 -5 -10 -11 -10 -5 0 -7 5 -4 10 3 6
8 10 11 10 2 0 4 -4 4 -10z m-353 -6 c-3 -3 -12 -4 -19 -1 -8 3 -5 6 6 6 11 1
17 -2 13 -5z m38 -4 c3 -6 -1 -7 -9 -4 -18 7 -21 14 -7 14 6 0 13 -4 16 -10z
m859 -2 c-3 -4 -9 -8 -15 -8 -5 0 -9 4 -9 8 0 5 7 9 15 9 8 0 12 -4 9 -9z
m-574 -15 c0 -10 -4 -14 -8 -8 -4 6 -11 13 -16 18 -5 4 -2 7 7 7 10 0 17 -8
17 -17z m91 -6 c-10 -9 -11 -8 -5 6 3 10 9 15 12 12 3 -3 0 -11 -7 -18z m86 1
c-3 -8 -6 -5 -6 6 -1 11 2 17 5 13 3 -3 4 -12 1 -19z m663 12 c0 -5 -4 -10
-10 -10 -5 0 -10 5 -10 10 0 6 5 10 10 10 6 0 10 -4 10 -10z m530 -6 c0 -8 -5
-12 -10 -9 -6 4 -8 11 -5 16 9 14 15 11 15 -7z m-1036 -6 c-3 -4 -11 -5 -19
-1 -21 7 -19 12 4 10 11 0 18 -5 15 -9z m87 -11 c-10 -9 -11 -8 -5 6 3 10 9
15 12 12 3 -3 0 -11 -7 -18z m214 10 c17 6 18 5 5 -9 -16 -17 -40 -7 -40 16 0
7 3 6 8 -2 5 -8 16 -10 27 -5z m105 3 c0 -5 -5 -10 -11 -10 -5 0 -7 5 -4 10 3
6 8 10 11 10 2 0 4 -4 4 -10z m1117 -12 c-3 -8 -6 -5 -6 6 -1 11 2 17 5 13 3
-3 4 -12 1 -19z m-2177 -3 c0 -8 -4 -15 -10 -15 -5 0 -7 7 -4 15 4 8 8 15 10
15 2 0 4 -7 4 -15z m118 -1 c-2 -10 3 -19 11 -22 10 -3 12 1 8 17 -3 11 -1 21
4 21 5 0 9 -11 9 -24 0 -28 -40 -45 -41 -18 0 14 -2 13 -8 -2 -4 -11 -10 -15
-14 -9 -3 5 1 20 11 31 21 26 24 27 20 6z m168 4 c4 -6 3 -8 -3 -5 -6 4 -13
-6 -15 -23 -3 -16 -2 -31 1 -33 3 -2 1 -3 -5 -1 -6 1 -17 -3 -23 -9 -6 -6 -11
-7 -11 -1 0 5 4 14 10 20 5 5 11 21 14 34 2 14 5 26 5 28 2 7 21 0 27 -10z
m613 -2 c9 -11 9 -16 -1 -22 -7 -4 -10 -4 -6 1 4 4 3 14 -3 22 -6 7 -9 13 -6
13 2 0 10 -6 16 -14z m186 -6 c-3 -5 -12 -10 -18 -10 -7 0 -6 4 3 10 19 12 23
12 15 0z m-1076 -41 c-22 -13 -31 2 -12 21 15 14 19 15 21 2 2 -8 -2 -18 -9
-23z m371 37 c0 -3 -4 -8 -10 -11 -5 -3 -10 -1 -10 4 0 6 5 11 10 11 6 0 10
-2 10 -4z m174 -11 c-4 -8 -10 -15 -15 -15 -4 0 -6 7 -3 15 4 8 10 15 15 15 4
0 6 -7 3 -15z m1004 -23 c-7 -18 -16 -32 -20 -32 -4 0 0 16 9 35 20 42 27 41
11 -3z m39 16 c-3 -8 -6 -5 -6 6 -1 11 2 17 5 13 3 -3 4 -12 1 -19z m545 0
c-7 -7 -12 -8 -12 -2 0 14 12 26 19 19 2 -3 -1 -11 -7 -17z m-1745 -8 c-1 -12
-5 -16 -10 -11 -5 5 -6 14 -3 20 11 16 15 13 13 -9z m1083 11 c0 -5 -13 -16
-28 -24 -20 -9 -29 -10 -29 -2 0 6 10 12 21 13 11 0 22 6 24 12 4 12 12 13 12
1z m205 -1 c3 -5 1 -10 -4 -10 -6 0 -11 5 -11 10 0 6 2 10 4 10 3 0 8 -4 11
-10z m-1364 -23 c-10 -9 -11 -8 -5 6 3 10 9 15 12 12 3 -3 0 -11 -7 -18z m144
13 c3 -5 -1 -10 -10 -10 -9 0 -13 5 -10 10 3 6 8 10 10 10 2 0 7 -4 10 -10z
m35 -5 c-7 -8 -8 -15 -3 -15 5 0 10 -7 10 -15 0 -17 -32 -20 -42 -4 -4 5 3 19
16 30 26 23 36 25 19 4z m115 5 c3 -5 -1 -10 -10 -10 -9 0 -13 5 -10 10 3 6 8
10 10 10 2 0 7 -4 10 -10z m190 -8 c-3 -3 -11 0 -18 7 -9 10 -8 11 6 5 10 -3
15 -9 12 -12z m47 -4 c-7 -7 -12 -8 -12 -2 0 14 12 26 19 19 2 -3 -1 -11 -7
-17z m368 -6 c-21 -7 -23 -6 -26 10 -2 14 1 15 17 5 11 -7 15 -13 9 -15z m130
13 c0 -11 -29 -11 -33 -1 -4 10 1 12 14 9 10 -3 19 -7 19 -8z m-693 -1 c-3 -3
-12 -4 -19 -1 -8 3 -5 6 6 6 11 1 17 -2 13 -5z m273 -4 c0 -5 -9 -14 -20 -20
-22 -12 -23 -10 -14 14 7 17 34 22 34 6z m53 3 c-7 -2 -19 -2 -25 0 -7 3 -2 5
12 5 14 0 19 -2 13 -5z m274 -15 c-3 -8 -6 -5 -6 6 -1 11 2 17 5 13 3 -3 4
-12 1 -19z m366 2 c3 -11 1 -18 -4 -14 -5 3 -9 12 -9 20 0 20 7 17 13 -6z
m-1253 0 c8 -5 11 -10 5 -10 -5 0 -17 5 -25 10 -8 5 -10 10 -5 10 6 0 17 -5
25 -10z m324 -13 c-3 -9 -16 -23 -29 -31 -22 -15 -24 -14 -22 3 0 10 7 17 13
14 7 -3 19 4 26 16 14 23 22 22 12 -2z m831 13 c-3 -5 -12 -10 -18 -10 -7 0
-6 4 3 10 19 12 23 12 15 0z m-550 -10 c3 -5 1 -10 -4 -10 -6 0 -11 5 -11 10
0 6 2 10 4 10 3 0 8 -4 11 -10z m-578 -22 c-3 -8 -6 -5 -6 6 -1 11 2 17 5 13
3 -3 4 -12 1 -19z m383 12 c0 -5 -5 -10 -11 -10 -5 0 -7 5 -4 10 3 6 8 10 11
10 2 0 4 -4 4 -10z m-225 -10 c3 -5 1 -10 -4 -10 -6 0 -11 5 -11 10 0 6 2 10
4 10 3 0 8 -4 11 -10z m195 4 c0 -3 -7 -12 -15 -20 -12 -13 -15 -13 -15 -1 0
7 3 17 7 20 8 8 23 9 23 1z m337 0 c-3 -3 -12 -4 -19 -1 -8 3 -5 6 6 6 11 1
17 -2 13 -5z m68 -4 c3 -5 1 -10 -4 -10 -6 0 -11 5 -11 10 0 6 2 10 4 10 3 0
8 -4 11 -10z m128 4 c7 -8 -3 -34 -13 -34 -5 0 -8 9 -7 20 1 20 8 25 20 14z
m87 -4 c0 -5 -5 -10 -11 -10 -5 0 -8 -3 -6 -7 3 -5 -10 -8 -28 -8 -36 0 -33
15 4 18 11 1 21 5 21 9 0 4 5 8 10 8 6 0 10 -4 10 -10z m-370 -15 c7 -8 8 -15
2 -15 -5 0 -15 7 -22 15 -7 8 -8 15 -2 15 5 0 15 -7 22 -15z m453 -5 c-3 -12
-8 -19 -11 -16 -5 6 5 36 12 36 2 0 2 -9 -1 -20z m54 14 c-3 -3 -12 -4 -19 -1
-8 3 -5 6 6 6 11 1 17 -2 13 -5z m113 -29 c0 -5 -5 -3 -10 5 -5 8 -10 20 -10
25 0 6 5 3 10 -5 5 -8 10 -19 10 -25z m90 25 c0 -5 -2 -10 -4 -10 -3 0 -8 5
-11 10 -3 6 -1 10 4 10 6 0 11 -4 11 -10z m-783 -26 c-9 -9 -28 6 -21 18 4 6
10 6 17 -1 6 -6 8 -13 4 -17z m121 12 c-7 -8 -15 -12 -17 -11 -5 6 10 25 20
25 5 0 4 -6 -3 -14z m172 10 c0 -2 -7 -7 -16 -10 -8 -3 -12 -2 -9 4 6 10 25
14 25 6z m197 -28 c-3 -7 -5 -2 -5 12 0 14 2 19 5 13 2 -7 2 -19 0 -25z m165
-3 c-11 -21 -25 -4 -16 20 4 10 10 13 16 7 7 -7 7 -16 0 -27z m-192 15 c0 -5
-4 -10 -10 -10 -5 0 -10 5 -10 10 0 6 5 10 10 10 6 0 10 -4 10 -10z m-220 -4
c0 -2 -7 -9 -15 -16 -13 -11 -14 -10 -9 4 5 14 24 23 24 12z m-85 -16 c-3 -5
-12 -7 -20 -3 -21 7 -19 13 6 13 11 0 18 -4 14 -10z m577 -12 c-7 -7 -12 -8
-12 -2 0 14 12 26 19 19 2 -3 -1 -11 -7 -17z m755 6 c-3 -3 -12 -4 -19 -1 -8
3 -5 6 6 6 11 1 17 -2 13 -5z"/>
<path d="M1685 90 c-3 -5 3 -10 15 -10 12 0 18 5 15 10 -3 6 -10 10 -15 10 -5
0 -12 -4 -15 -10z"/>
</g>
</svg>
