<svg width="311" height="90" viewBox="0 0 311 90" fill="none" xmlns="http://www.w3.org/2000/svg">
<path d="M0 44.876C0 23.7213 0 13.1439 6.57194 6.57194C13.1439 0 23.7213 0 44.876 0C66.0308 0 76.6082 0 83.1801 6.57194C89.7521 13.1439 89.7521 23.7213 89.7521 44.876C89.7521 66.0308 89.7521 76.6082 83.1801 83.1801C76.6082 89.7521 66.0308 89.7521 44.876 89.7521C23.7213 89.7521 13.1439 89.7521 6.57194 83.1801C0 76.6082 0 66.0308 0 44.876Z" fill="#141414"/>
<path d="M27.9014 42.6316C19.9138 42.5531 13.4628 36.0537 13.4628 28.0476C13.4628 19.9926 19.9926 13.4629 28.0475 13.4629C36.0523 13.4629 42.5509 19.9116 42.6315 27.8973C42.632 27.933 42.6322 27.9687 42.6322 28.0044V35.3831C42.6322 39.3867 39.3867 42.6323 35.383 42.6323H28.0044C27.97 42.6323 27.9356 42.632 27.9014 42.6316Z" fill="white"/>
<path d="M63.1149 44.873C70.417 44.7195 76.2893 38.7521 76.2893 31.4132C76.2893 23.9779 70.2617 17.9504 62.8264 17.9504C55.4885 17.9504 49.5218 23.821 49.3667 31.1218C49.3647 31.1899 49.3636 31.2583 49.3636 31.3269V38.2309C49.3636 41.9009 52.3387 44.876 56.0087 44.876H62.8083C62.8143 44.876 62.8204 44.876 62.8264 44.876C62.8325 44.876 62.8386 44.876 62.8446 44.876H62.9127C62.9804 44.876 63.0478 44.875 63.1149 44.873Z" fill="white"/>
<path d="M45.1027 63.7064C45.1012 63.7868 45.1004 63.8675 45.1004 63.9483C45.1004 70.764 50.6256 76.2892 57.4413 76.2892C64.257 76.2892 69.7822 70.764 69.7822 63.9483C69.7822 57.1326 64.257 51.6074 57.4413 51.6074C57.3603 51.6074 57.2794 51.6082 57.1988 51.6097C57.1399 51.6082 57.0808 51.6074 57.0216 51.6074H51.6906C48.0509 51.6074 45.1004 54.5579 45.1004 58.1976V63.5286C45.1004 63.588 45.1012 63.6473 45.1027 63.7064Z" fill="white"/>
<path d="M38.3572 60.0631C38.365 60.2353 38.369 60.4085 38.369 60.5826C38.369 66.7787 33.3461 71.8017 27.15 71.8017C20.9539 71.8017 15.931 66.7787 15.931 60.5826C15.931 54.3866 20.9539 49.3636 27.15 49.3636C27.324 49.3636 27.4971 49.3676 27.6691 49.3754C27.8 49.3676 27.9319 49.3636 28.0647 49.3636H31.8447C35.4479 49.3636 38.369 52.2847 38.369 55.8879V59.6679C38.369 59.8006 38.365 59.9324 38.3572 60.0631Z" fill="white"/>
<path fill-rule="evenodd" clip-rule="evenodd" d="M194.721 14.7912L187.773 16.254L187.836 19.0954L176.909 24.1092V15.2479H169.341V38.6775H176.909V31.9137L182.16 29.4541L188.119 38.6775H196.728L188.64 26.4269L192.329 24.7241C194.41 23.7308 195.309 22.2645 195.309 19.9941V14.7912H194.721ZM140.078 14.1322H117.521V19.7002H125.405V38.6775H132.973V19.7002H140.078V14.1322ZM153.053 39.1505C145.532 39.1505 139.572 35.0828 139.572 26.7107C139.572 18.3859 145.532 14.3182 153.053 14.3182C160.526 14.3182 166.486 18.3859 166.486 26.7107C166.486 35.0828 160.526 39.1505 153.053 39.1505ZM153.053 20.9401C149.458 20.9401 147.14 22.7375 147.14 26.7107C147.14 30.7312 149.458 32.5286 153.053 32.5286C156.6 32.5286 158.918 30.7312 158.918 26.7107C158.918 22.7375 156.6 20.9401 153.053 20.9401ZM210.605 39.1505C201.428 39.1505 197.219 33.1908 197.219 26.4269C197.219 18.8589 202.374 14.3182 209.8 14.3182C217.226 14.3182 222.429 18.717 222.429 25.9539V28.3189H204.314C204.314 31.0623 206.3 33.0016 210.605 33.0016C213.253 33.0016 215.24 32.0556 215.713 30.2582H223.281C222.808 33.7111 218.882 39.1505 210.605 39.1505ZM209.8 20.4671C205.591 20.4671 204.314 22.2645 204.314 24.0619H215.334C215.334 22.2645 214.01 20.4671 209.8 20.4671ZM245.871 26.9472C245.871 22.5956 244.593 20.9401 240.951 20.9401C236.836 20.9401 234.14 23.1159 234.14 29.8325V38.6775H226.572V14.7912H234.14V17.6764L232.721 21.9334H234.613C235.559 17.6764 238.539 14.3182 243.647 14.3182C249.749 14.3182 253.439 18.3859 253.439 25.7647V38.6775H245.871V26.9472ZM271.12 24.615C275.542 26.0512 279.475 27.3288 279.475 32.1029C279.475 36.1233 276.59 39.1505 268.36 39.1505C259.562 39.1505 255.778 35.6031 255.778 30.0217H263.346C263.346 31.8664 264.623 33.4746 268.596 33.4746C270.63 33.4746 271.907 33.0016 271.907 31.8664C271.907 30.7351 270.787 30.3643 267.625 29.3181C267.349 29.227 267.059 29.1307 266.752 29.0284C266.341 28.893 265.922 28.76 265.5 28.626C261.347 27.3082 256.866 25.8861 256.866 21.0347C256.866 16.7778 260.697 14.3182 267.272 14.3182C275.36 14.3182 278.671 18.3386 278.671 22.974H271.103C271.103 21.2712 269.826 19.9941 267.225 19.9941C265.427 19.9941 264.434 20.4198 264.434 21.3658C264.434 22.4465 266.577 23.1413 270.047 24.2665L270.583 24.4403C270.761 24.4985 270.939 24.5562 271.115 24.6136L271.12 24.615ZM139.325 43.1405V46.2925H133.649V52.9144H139.325V66.6314C139.325 69.2329 140.744 70.7464 143.346 70.6518L155.691 70.1789V63.5569L146.893 64.0299V52.9144H154.745V46.2925H146.893V43.1405H139.325ZM216.508 43.1405V70.1789H208.94V68.7126L210.359 64.4556H208.467C207.238 67.6247 204.967 70.6518 199.055 70.6518C192.149 70.6518 188.696 64.9759 188.696 58.212C188.696 51.4482 192.149 45.8195 199.055 45.8195C204.967 45.8195 207.238 48.8467 208.467 52.0158H210.359L208.94 47.7588V43.1405H216.508ZM124.347 56.1163C128.769 57.5525 132.702 58.8301 132.702 63.6042C132.702 67.6247 129.817 70.6518 121.587 70.6518C112.789 70.6518 109.005 67.1044 109.005 61.523H116.573C116.573 63.3677 117.85 64.9759 121.823 64.9759C123.857 64.9759 125.134 64.5029 125.134 63.3677C125.134 62.2365 124.014 61.8656 120.852 60.8195C120.577 60.7283 120.286 60.632 119.979 60.5297C119.568 60.3943 119.149 60.2613 118.727 60.1273C114.575 58.8096 110.093 57.3874 110.093 52.536C110.093 48.2791 113.924 45.8195 120.499 45.8195C128.587 45.8195 131.898 49.84 131.898 54.4753H124.33C124.33 52.7725 123.053 51.4955 120.452 51.4955C118.654 51.4955 117.661 51.9212 117.661 52.8671C117.661 53.9478 119.804 54.6427 123.274 55.7678L123.81 55.9416C123.989 56.0002 124.169 56.0584 124.347 56.1163ZM166.574 58.0228C166.574 62.3744 167.851 64.0299 171.493 64.0299C175.608 64.0299 178.305 61.8541 178.305 55.1375V46.2925H185.873V70.1789H178.305V67.2936L179.724 63.0366H177.832C176.886 67.2936 173.906 70.6518 168.797 70.6518C162.696 70.6518 159.006 66.5841 159.006 59.2053V46.2925H166.574V58.0228ZM202.602 64.0299C206.67 64.0299 208.94 62.2325 208.94 58.212C208.94 54.1915 206.67 52.4414 202.602 52.4414C198.534 52.4414 196.264 54.1915 196.264 58.212C196.264 62.2325 198.534 64.0299 202.602 64.0299ZM234.669 58.8801C234.669 67.2522 240.629 71.32 248.15 71.32C255.623 71.32 261.583 67.2522 261.583 58.8801C261.583 50.5554 255.623 46.4876 248.15 46.4876C240.629 46.4876 234.669 50.5554 234.669 58.8801ZM242.237 58.8801C242.237 54.907 244.555 53.1096 248.15 53.1096C251.697 53.1096 254.015 54.907 254.015 58.8801C254.015 62.9006 251.697 64.698 248.15 64.698C244.555 64.698 242.237 62.9006 242.237 58.8801ZM222.397 52.5263L230.207 51.9684V69.9174H222.397V52.5263Z" fill="black"/>
<path d="M222.397 49.1213L230.207 48.5635V43.0827H222.397V49.1213Z" fill="black"/>
</svg>
