<svg width="24" height="24" viewBox="0 0 24 24" fill="none" xmlns="http://www.w3.org/2000/svg">
<path d="M0 12C0 6.34315 0 3.51472 1.75736 1.75736C3.51472 0 6.34315 0 12 0C17.6569 0 20.4853 0 22.2426 1.75736C24 3.51472 24 6.34315 24 12C24 17.6569 24 20.4853 22.2426 22.2426C20.4853 24 17.6569 24 12 24C6.34315 24 3.51472 24 1.75736 22.2426C0 20.4853 0 17.6569 0 12Z" fill="#141414"/>
<path d="M7.46092 11.3998C5.32501 11.3789 3.6 9.64088 3.6 7.50001C3.6 5.3461 5.34609 3.60001 7.5 3.60001C9.6405 3.60001 11.3782 5.32443 11.3998 7.45983C11.3999 7.46936 11.4 7.47891 11.4 7.48847V9.46155C11.4 10.5321 10.5321 11.4 9.46154 11.4H7.48847C7.47927 11.4 7.47008 11.3999 7.46092 11.3998Z" fill="white"/>
<path d="M16.8771 11.9992C18.8297 11.9582 20.4 10.3625 20.4 8.40001C20.4 6.41179 18.7882 4.80001 16.8 4.80001C14.8378 4.80001 13.2423 6.36984 13.2008 8.32208C13.2003 8.3403 13.2 8.35858 13.2 8.37693V10.2231C13.2 11.2045 13.9955 12 14.9769 12H16.7951C16.7968 12 16.7984 12 16.8 12C16.8016 12 16.8032 12 16.8049 12H16.8231C16.8412 12 16.8592 11.9997 16.8771 11.9992Z" fill="white"/>
<path d="M12.0606 17.0352C12.0602 17.0568 12.06 17.0784 12.06 17.1C12.06 18.9225 13.5375 20.4 15.36 20.4C17.1825 20.4 18.66 18.9225 18.66 17.1C18.66 15.2774 17.1825 13.8 15.36 13.8C15.3382 13.8 15.3165 13.8002 15.2948 13.8006C15.2792 13.8002 15.2635 13.8 15.2478 13.8H13.8222C12.849 13.8 12.06 14.589 12.06 15.5622V16.9878C12.06 17.0036 12.0602 17.0195 12.0606 17.0352Z" fill="white"/>
<path d="M10.2568 16.0611C10.2589 16.1071 10.26 16.1534 10.26 16.2C10.26 17.8568 8.91685 19.2 7.26 19.2C5.60315 19.2 4.26 17.8568 4.26 16.2C4.26 14.5431 5.60315 13.2 7.26 13.2C7.30653 13.2 7.35281 13.201 7.39882 13.2031C7.43381 13.201 7.46909 13.2 7.5046 13.2H8.51537C9.4789 13.2 10.26 13.9811 10.26 14.9446V15.9554C10.26 15.9909 10.2589 16.0261 10.2568 16.0611Z" fill="white"/>
</svg>
